<svg xmlns="http://www.w3.org/2000/svg" xmlns:xlink="http://www.w3.org/1999/xlink" width="1920" height="1080" viewBox="0 0 1920 1080"><defs><clipPath id="a"><rect x="133" y="-196" width="1920" height="1080" fill="none"/></clipPath><filter id="b" x="-133" y="196" width="2152.863" height="1000.158" filterUnits="userSpaceOnUse"><feOffset dy="12" input="SourceAlpha"/><feGaussianBlur stdDeviation="10" result="c"/><feFlood flood-color="#455b63" flood-opacity="0.102"/><feComposite operator="in" in2="c"/><feComposite in="SourceGraphic"/></filter></defs><g transform="translate(65.422 -22.842)"><g transform="translate(-198.422 218.842)" clip-path="url(#a)" style="isolation:isolate"><g transform="matrix(1, 0, 0, 1, 133, -196)" filter="url(#b)"><path d="M3017.676,1019.158H946L1015.941,79c.089.083,12.243,11.4,34.183,30.667,20.277,17.8,53.36,46.283,95.81,80.85,47.705,38.846,97.274,77.3,147.33,114.305,62.566,46.248,126.069,90.334,188.743,131.033,159.534,103.6,314.737,186.139,461.3,245.338,20.9,8.441,41.905,16.516,62.44,24,21.094,7.69,42.282,14.974,62.976,21.65,21.232,6.85,42.547,13.255,63.352,19.036,21.326,5.926,42.715,11.364,63.572,16.161,21.361,4.914,42.771,9.3,63.634,13.025,21.349,3.816,42.725,7.055,63.537,9.627,21.286,2.631,42.578,4.639,63.283,5.968,21.159,1.359,42.312,2.047,62.871,2.047,22.033,0,44.02-.791,65.35-2.352,27.515-2.013,54.369-3.537,79.816-4.531,24.734-.966,48.8-1.455,71.531-1.455,29.06,0,56.865.8,82.643,2.374,24.717,1.511,48.23,3.776,69.885,6.733,20.708,2.828,40.265,6.362,58.129,10.506a434.073,434.073,0,0,1,47.376,13.692,291.557,291.557,0,0,1,37.628,16.294,200.3,200.3,0,0,1,28.882,18.308,145.8,145.8,0,0,1,21.141,19.738,117.09,117.09,0,0,1,14.4,20.581,106.317,106.317,0,0,1,9.313,23.12,110.021,110.021,0,0,1,3.62,22.637,132.392,132.392,0,0,1-4.353,40.618,163.407,163.407,0,0,1-10.661,29.07,114.7,114.7,0,0,1-5.993,11.114ZM1289.847,904.044l-2.7,1.234c.089.217.183.45.3.732s.214.552.307.807c.114.311.21.586.3.842.094.278.185.564.27.85a2.64,2.64,0,0,1-.406,1.168,5.927,5.927,0,0,1-.943,1.152,10.485,10.485,0,0,1-1.319,1.076,14.964,14.964,0,0,1-1.53.935l1.8,2.306a12.477,12.477,0,0,0,1.966-1.282,9.567,9.567,0,0,0,1.563-1.567,7.034,7.034,0,0,0,1.03-1.8,5.523,5.523,0,0,0,.37-2,7.027,7.027,0,0,0-.089-1.084c-.057-.367-.135-.751-.232-1.142s-.207-.776-.322-1.145S1289.967,904.386,1289.847,904.044Zm-13.666,0-2.7,1.234c.093.226.192.472.3.732s.207.533.307.807c.112.306.208.581.3.842.094.281.185.566.27.85a2.638,2.638,0,0,1-.407,1.168,5.894,5.894,0,0,1-.942,1.152,10.5,10.5,0,0,1-1.32,1.076,14.994,14.994,0,0,1-1.53.935l1.8,2.306a12.47,12.47,0,0,0,1.967-1.282,9.565,9.565,0,0,0,1.563-1.567,7.043,7.043,0,0,0,1.03-1.8,5.518,5.518,0,0,0,.37-2,7.008,7.008,0,0,0-.089-1.084c-.057-.365-.135-.749-.233-1.142s-.2-.77-.322-1.145S1276.3,904.386,1276.181,904.044Zm5.034-1.9a2.081,2.081,0,0,0-.861.189,3.119,3.119,0,0,0-.786.514,4.394,4.394,0,0,0-.677.753,5.562,5.562,0,0,0-.872,1.914,4.293,4.293,0,0,0-.122.99,3.569,3.569,0,0,0,.252,1.383,2.873,2.873,0,0,0,.709,1.017,3.363,3.363,0,0,0,1.1.654,5.494,5.494,0,0,0,1.434.3c.061.006.124.01.188.012s.142,0,.244.01h.024c.079,0,.158.008.239.011s.171,0,.244,0a3.012,3.012,0,0,1-.676.7,6.24,6.24,0,0,1-1.058.643,11.315,11.315,0,0,1-1.393.561,15.2,15.2,0,0,1-1.685.452l.687,2.839a13.326,13.326,0,0,0,1.819-.525,10.388,10.388,0,0,0,1.655-.781,8.451,8.451,0,0,0,1.419-1.038,6.622,6.622,0,0,0,1.105-1.3,6.109,6.109,0,0,0,.717-1.56,6.368,6.368,0,0,0,.255-1.83,7.539,7.539,0,0,0-.119-1.3,8.177,8.177,0,0,0-.351-1.335,7.6,7.6,0,0,0-.572-1.253,5.186,5.186,0,0,0-.78-1.045,3.573,3.573,0,0,0-.979-.717A2.593,2.593,0,0,0,1281.215,902.144Zm560.854,8.471h0l1.322,1.32,1.336-1.343-1.35-1.344-1.308,1.309-1.322-1.321-1.336,1.343,1.35,1.343,1.307-1.307Zm-188.864,0h0l1.321,1.32,1.335-1.343-1.349-1.344-1.308,1.309-1.322-1.321-1.336,1.343,1.35,1.343,1.307-1.307Zm-178.966-2.783h0a2.226,2.226,0,0,0,.309.365,2.741,2.741,0,0,0,1.033.63,1.984,1.984,0,0,0,.661.109,4.323,4.323,0,0,0,1.474-.24,2.736,2.736,0,0,0,1.037-.661,2.7,2.7,0,0,0,.612-1.038,4.352,4.352,0,0,0,.2-1.366,5.986,5.986,0,0,0-.114-1.138c-.077-.392-.173-.781-.286-1.158s-.24-.742-.38-1.089c-.133-.332-.266-.644-.4-.928l-2.059,1.147c.028.054.061.122.1.2l.029.059.062.125c.079.161.161.342.25.554s.169.416.254.649a5.725,5.725,0,0,1,.2.683,3.688,3.688,0,0,1,.091.647,1.386,1.386,0,0,1-.076.548.78.78,0,0,1-.3.38,1.032,1.032,0,0,1-.577.139.512.512,0,0,1-.4-.16.974.974,0,0,1-.205-.421,2.659,2.659,0,0,1-.066-.588c0-.221.006-.443.024-.661s.041-.433.069-.646c.026-.191.047-.372.063-.537l-2.087-.348c-.034.2-.073.42-.122.682-.043.235-.093.472-.153.723a7.174,7.174,0,0,1-.206.7,3.138,3.138,0,0,1-.275.591,1.638,1.638,0,0,1-.355.421.752.752,0,0,1-.449.177.212.212,0,0,1-.191-.152,1.072,1.072,0,0,1-.063-.379,3.933,3.933,0,0,1,.035-.536c.025-.2.056-.4.1-.618s.082-.412.132-.634.093-.4.136-.574l-2.337-.437c-.108.419-.219.814-.327,1.172a5.411,5.411,0,0,1-.389.97,2.129,2.129,0,0,1-.526.662,1.149,1.149,0,0,1-.74.243h-6.449a.122.122,0,0,1-.038,0,.941.941,0,0,1-.387-.066.5.5,0,0,1-.247-.254,1.127,1.127,0,0,1-.076-.425c0-.152,0-.327,0-.566,0-.607.008-1.241.024-1.885s.021-1.318.014-1.979-.033-1.326-.08-1.984a15.554,15.554,0,0,0-.25-1.9l-2.608.794c.1.661.172,1.322.211,1.966s.064,1.292.073,1.927.01,1.275,0,1.9c-.009.65-.014,1.284-.014,1.885a4.493,4.493,0,0,0,.189,1.326,2.737,2.737,0,0,0,.6,1.057,2.813,2.813,0,0,0,1.072.7,4.413,4.413,0,0,0,1.52.253h6.587a3.575,3.575,0,0,0,.734-.076,3.061,3.061,0,0,0,.626-.205,1.809,1.809,0,0,0,.469-.311,1.361,1.361,0,0,0,.3-.389,1.711,1.711,0,0,0,.292.4,2.148,2.148,0,0,0,.435.345,2.374,2.374,0,0,0,.547.239,1.953,1.953,0,0,0,.581.085h.045a2.506,2.506,0,0,0,.692-.1,2.44,2.44,0,0,0,.571-.253,2.406,2.406,0,0,0,.448-.352,2.522,2.522,0,0,0,.326-.394Zm196.524-2.783-1.141,2.623c.3.183.612.354.925.507a8.719,8.719,0,0,0,.957.4,6.732,6.732,0,0,0,.985.257,5.643,5.643,0,0,0,1,.09.287.287,0,0,1,.056,0,.4.4,0,0,0,.055,0h.112a4.306,4.306,0,0,0,1.468-.237,3.191,3.191,0,0,0,1.109-.664,2.943,2.943,0,0,0,.7-1.019,3.37,3.37,0,0,0,.247-1.3,4.371,4.371,0,0,0-.164-1.19,5.435,5.435,0,0,0-.455-1.116,7.22,7.22,0,0,0-.692-1.043,11.364,11.364,0,0,0-.87-.974c-.318-.317-.65-.622-.988-.907s-.7-.574-1.054-.843l-1.552,2.3.213.166.529.411c.262.2.542.429.855.69.292.242.574.489.839.733a8.648,8.648,0,0,1,.7.717,2.936,2.936,0,0,1,.435.636.55.55,0,0,1,.042.487.425.425,0,0,1-.2.192,1.385,1.385,0,0,1-.345.115,2.526,2.526,0,0,1-.445.049l-.121,0c-.128,0-.258-.006-.387-.016a5.268,5.268,0,0,1-1.321-.334A9.125,9.125,0,0,1,1670.763,905.049Zm-242.7-3.243a12.748,12.748,0,0,0-.543,1.287,5.526,5.526,0,0,0-.282,1.187,3.6,3.6,0,0,0,.456,2.244,3.292,3.292,0,0,0,.932,1.039,5.469,5.469,0,0,0,1.427.734,9.565,9.565,0,0,0,1.875.435,17.076,17.076,0,0,0,2.271.142c.592,0,1.165-.027,1.7-.08a9.976,9.976,0,0,0,1.5-.261,7.217,7.217,0,0,0,1.3-.466,5.078,5.078,0,0,0,1.092-.7,3.366,3.366,0,0,0,1.343,1.123,4.575,4.575,0,0,0,1.885.364h7.415c.719,0,1.4-.021,2.032-.063.609-.038,1.219-.093,1.812-.162.552-.066,1.074-.142,1.551-.226s.877-.169,1.235-.258l-.355-2.706c-.429.088-.861.166-1.28.233-.4.064-.808.117-1.2.157-.078,0-.18.006-.321.006h-.1a2.2,2.2,0,0,1-.334-.042,1.987,1.987,0,0,1-.6-.2,1.168,1.168,0,0,1-.4-.344.794.794,0,0,1-.146-.47.737.737,0,0,1,.146-.445,1.312,1.312,0,0,1,.379-.344,2.1,2.1,0,0,1,.515-.223,2.055,2.055,0,0,1,.553-.08,2.751,2.751,0,0,1,.922.161c.3.106.619.234.942.383l1.113-2.135c-.225-.166-.451-.322-.671-.463a4.776,4.776,0,0,0-.682-.366,4.113,4.113,0,0,0-.74-.24,3.875,3.875,0,0,0-.835-.086h-.213a1.68,1.68,0,0,0-.211.013,3.759,3.759,0,0,0-1.426.393,4.241,4.241,0,0,0-1.162.853,4.057,4.057,0,0,0-.782,1.155,3.221,3.221,0,0,0-.3,1.3,2.943,2.943,0,0,0,.028.4,2.69,2.69,0,0,0,.084.39,2.615,2.615,0,0,0,.132.353,2.136,2.136,0,0,0,.159.293l-.946.007h-6.282a2.527,2.527,0,0,1-.609-.069,1.478,1.478,0,0,1-.459-.2.771.771,0,0,1-.268-.3.6.6,0,0,1-.049-.372l.3-1.69-2.484-.627-.024.1c-.047.2-.094.4-.142.6a5.686,5.686,0,0,1-.2.661,3.392,3.392,0,0,1-.282.578,1.866,1.866,0,0,1-.4.459,2.5,2.5,0,0,1-.734.414,5.689,5.689,0,0,1-.974.26,10.028,10.028,0,0,1-1.177.137c-.414.025-.866.038-1.345.038-.5,0-1-.008-1.464-.024a10.257,10.257,0,0,1-1.284-.119,3.92,3.92,0,0,1-1-.284,1.228,1.228,0,0,1-.6-.534.853.853,0,0,1-.1-.42,2.594,2.594,0,0,1,.056-.545,4.42,4.42,0,0,1,.164-.588,5.246,5.246,0,0,1,.222-.54Zm431.892-4.766-2.608.794c.1.668.173,1.329.212,1.966s.063,1.285.073,1.927.009,1.275,0,1.9-.014,1.253-.014,1.885a4.494,4.494,0,0,0,.188,1.326,2.732,2.732,0,0,0,.6,1.057,2.808,2.808,0,0,0,1.071.7,4.4,4.4,0,0,0,1.52.253h7.826a6.851,6.851,0,0,0,1.68-.2,3.939,3.939,0,0,0,1.36-.616,2.987,2.987,0,0,0,.911-1.067,3.4,3.4,0,0,0,.334-1.562,5.279,5.279,0,0,0-.094-.953,10.2,10.2,0,0,0-.247-1.03c-.1-.344-.215-.686-.351-1.045-.125-.331-.262-.668-.407-1l-2.491,1.233.289.585.136.277c.135.276.262.538.4.824s.223.5.3.682a1.376,1.376,0,0,1,.115.442.307.307,0,0,1-.1.23,1.034,1.034,0,0,1-.275.174,2.177,2.177,0,0,1-.39.128c-.142.034-.291.063-.444.084s-.283.035-.442.046-.28.013-.383.013H1861a.119.119,0,0,1-.037,0,.941.941,0,0,1-.387-.066.5.5,0,0,1-.247-.254,1.108,1.108,0,0,1-.077-.425c0-.14,0-.31,0-.566,0-.6.008-1.234.024-1.885s.021-1.309.014-1.979-.034-1.325-.08-1.984A15.7,15.7,0,0,0,1859.954,897.041Zm-16.82,10.977h0a1.284,1.284,0,0,0,.371.352,2.567,2.567,0,0,0,.539.262,3.513,3.513,0,0,0,.634.165,4.049,4.049,0,0,0,.536.053l6.309,0h.974a6.433,6.433,0,0,0,1.645-.2,3.532,3.532,0,0,0,1.284-.616,2.843,2.843,0,0,0,.834-1.067,3.728,3.728,0,0,0,.3-1.562,5.241,5.241,0,0,0-.094-.953,10.26,10.26,0,0,0-.247-1.03c-.1-.347-.217-.689-.352-1.045s-.269-.686-.406-1l-2.491,1.233.164.332.26.531c.138.281.272.558.4.824s.223.494.3.682a1.376,1.376,0,0,1,.114.442.38.38,0,0,1-.191.324,1.682,1.682,0,0,1-.466.208,3.31,3.31,0,0,1-.591.112c-.217.021-.4.031-.567.031h-7.047c-.05,0-.115,0-.2-.007a1.534,1.534,0,0,1-.254-.038.885.885,0,0,1-.254-.105.458.458,0,0,1-.185-.212,3.414,3.414,0,0,0,.035-.616c0-.239-.021-.492-.048-.751s-.062-.511-.1-.751-.08-.452-.121-.629l-2.477.612c.083.387.144.723.181,1a2.95,2.95,0,0,1,.024.692.9.9,0,0,1-.149.437.718.718,0,0,1-.345.244,1.956,1.956,0,0,1-.556.1c-.22.014-.481.021-.776.021H1833.1a1.353,1.353,0,0,1-.41-.048.336.336,0,0,1-.209-.188,4.244,4.244,0,0,1-.08-.439c-.044-.277-.1-.668-.171-1.164-.076-.553-.156-1.171-.24-1.838-.09-.716-.187-1.539-.289-2.445l-2.713.578.1.848c-.188.078-.4.183-.643.311a7.486,7.486,0,0,0-.73.448,6.86,6.86,0,0,0-.727.582,4.42,4.42,0,0,0-.63.709,3.642,3.642,0,0,0-.441.824,2.579,2.579,0,0,0-.168.926,2.486,2.486,0,0,0,.279,1.211,2.384,2.384,0,0,0,.762.834,3.407,3.407,0,0,0,1.134.481,6.086,6.086,0,0,0,1.388.153c.169,0,.351-.005.591-.018.193-.01.393-.028.612-.052a2.169,2.169,0,0,0,1.033.793,4.167,4.167,0,0,0,1.423.25h7.137a8.852,8.852,0,0,0,.925-.048,6.077,6.077,0,0,0,.856-.151,3.73,3.73,0,0,0,.716-.256,1.708,1.708,0,0,0,.521-.38Zm-188.865,0h0a1.3,1.3,0,0,0,.372.352,2.532,2.532,0,0,0,.539.262,3.487,3.487,0,0,0,.633.165,4.072,4.072,0,0,0,.536.053l6.31,0h.278c.525,0,1.063-.014,1.6-.041a10.235,10.235,0,0,0,1.492-.184,5.553,5.553,0,0,0,1.28-.422,3.167,3.167,0,0,0,1-.747,3.25,3.25,0,0,0,.651-1.162,5.359,5.359,0,0,0,.23-1.673,6.141,6.141,0,0,0-.1-1.1,6.77,6.77,0,0,0-.3-1.107,5.908,5.908,0,0,0-.49-1.019,4.248,4.248,0,0,0-.672-.845,3.018,3.018,0,0,0-.841-.577,2.389,2.389,0,0,0-1.005-.212,2.181,2.181,0,0,0-.838.16,2.533,2.533,0,0,0-.7.432,3.209,3.209,0,0,0-.557.633,4.323,4.323,0,0,0-.41.769,4.481,4.481,0,0,0-.334,1.679,2.329,2.329,0,0,0,.274,1.181,2.1,2.1,0,0,0,.762.754,3.546,3.546,0,0,0,1.158.407,9.621,9.621,0,0,0,1.457.142,4.377,4.377,0,0,1-.507.073c-.2.021-.425.037-.682.049-.3.013-.538.022-.761.028l-.507.012-.23.005c-.234,0-.435.007-.612.007h-6.814c-.051,0-.116,0-.2-.007a1.523,1.523,0,0,1-.254-.038.892.892,0,0,1-.254-.105.458.458,0,0,1-.184-.212,3.449,3.449,0,0,0,.035-.616c0-.243-.021-.5-.048-.751s-.059-.487-.1-.751c-.04-.245-.081-.457-.122-.629l-2.476.612c.083.389.143.725.181,1a2.946,2.946,0,0,1,.024.692.891.891,0,0,1-.15.437.714.714,0,0,1-.344.244,1.969,1.969,0,0,1-.557.1c-.219.014-.48.021-.775.021h-7c-.126,0-.251,0-.382-.013s-.231-.02-.306-.028a5.024,5.024,0,0,0,.295-.772,2.91,2.91,0,0,0,.115-.814,3.531,3.531,0,0,0-.108-.866,3.791,3.791,0,0,0-.306-.812,3.931,3.931,0,0,0-.481-.716,3.271,3.271,0,0,0-.629-.577,3.36,3.36,0,0,0-.752-.393,2.761,2.761,0,0,0-.841-.17h-.081a2.557,2.557,0,0,0-.813.13,3.216,3.216,0,0,0-.8.4,3.514,3.514,0,0,0-.678.612,4.165,4.165,0,0,0-.518.769,3.788,3.788,0,0,0-.323.867,3.212,3.212,0,0,0,.039,1.7,2.251,2.251,0,0,0,.292.639l-.592.049h-6.413a1.372,1.372,0,0,1-.412-.048.335.335,0,0,1-.208-.188,4.086,4.086,0,0,1-.08-.439c-.042-.259-.1-.629-.171-1.164s-.154-1.148-.24-1.838c-.092-.728-.189-1.551-.289-2.445l-2.714.578.1.848c-.184.077-.4.181-.643.311a7.323,7.323,0,0,0-.73.448,6.858,6.858,0,0,0-.727.582,4.4,4.4,0,0,0-.63.709,3.628,3.628,0,0,0-.442.824,2.581,2.581,0,0,0-.168.926,2.5,2.5,0,0,0,.278,1.211,2.4,2.4,0,0,0,.762.834,3.409,3.409,0,0,0,1.134.481,6.089,6.089,0,0,0,1.388.153c.167,0,.354-.005.591-.018.194-.011.394-.028.612-.052a2.17,2.17,0,0,0,1.033.793,4.158,4.158,0,0,0,1.422.25h6.588c.305,0,.629-.01.964-.032s.652-.053.963-.1a6.587,6.587,0,0,0,.863-.185,2.413,2.413,0,0,0,.661-.29,4.617,4.617,0,0,0,.769.314,6.172,6.172,0,0,0,.787.185,7.37,7.37,0,0,0,.817.087c.289.013.579.02.862.02h7.138a8.854,8.854,0,0,0,.926-.048,6.076,6.076,0,0,0,.855-.151,3.721,3.721,0,0,0,.717-.256,1.687,1.687,0,0,0,.52-.38Zm-379.587-8.565-1.641,1.642,1.641,1.641,1.641-1.641Zm159.816,1.707h0l1.321,1.322,1.336-1.343-1.35-1.343L1434.5,901.1l-1.322-1.321-1.336,1.342,1.35,1.343,1.307-1.308Zm419.245-3.484h0l-1.544,1.544,1.545,1.544,1.544-1.543-1.544-1.545Zm16.612,1.488h0l1.321,1.321,1.336-1.342-1.35-1.343-1.308,1.307-1.322-1.322-1.336,1.343,1.35,1.343,1.307-1.308Zm-229.63-.1h0l1.322,1.319,1.336-1.341-1.35-1.344L1640.724,899l-1.322-1.323-1.336,1.344,1.35,1.343,1.307-1.307Zm25.008-1.162h0l1.321,1.322,1.336-1.344-1.349-1.342-1.309,1.307-1.321-1.321-1.336,1.341,1.349,1.344,1.307-1.307Zm204.622-2.011h0l-1.238,1.238,1.245,1.246,1.237-1.239-1.245-1.246Zm-5.1-46.355c.3,1.341.64,2.759,1.006,4.215s.76,2.928,1.172,4.377.846,2.908,1.28,4.3.88,2.765,1.315,4.029c.44,1.28.883,2.475,1.315,3.552s.859,2.038,1.255,2.833l7.724-4.926c-.908-1.579-1.809-3.321-2.677-5.177s-1.72-3.839-2.511-5.859-1.543-4.127-2.224-6.241-1.282-4.247-1.782-6.325-.9-4.126-1.183-6.1a41.865,41.865,0,0,1-.454-5.6h-8.918a74.869,74.869,0,0,1-.636,7.568,62.788,62.788,0,0,1-1.279,6.66,54.6,54.6,0,0,1-1.841,5.918c-.7,1.849-1.467,3.647-2.284,5.344s-1.7,3.367-2.631,4.963c-.939,1.612-1.908,3.209-2.882,4.747l7.773,5.021a55.582,55.582,0,0,0,2.858-5.668c.882-2.018,1.69-4.081,2.4-6.133s1.352-4.1,1.889-6.062S1864.918,851.178,1865.251,849.531Zm-191.584-17.391a14.132,14.132,0,0,0-3.407.419,15.609,15.609,0,0,0-3.216,1.183,14.042,14.042,0,0,0-2.822,1.866,12.868,12.868,0,0,0-2.236,2.463,11.679,11.679,0,0,0-1.482,2.977,10.649,10.649,0,0,0-.539,3.383,8.13,8.13,0,0,0,.562,3,10.115,10.115,0,0,0,1.495,2.595,11.135,11.135,0,0,0,2.164,2.068,11.593,11.593,0,0,0,2.571,1.422,13.73,13.73,0,0,0-2.009,2.057c-.686.845-1.369,1.782-2.033,2.786s-1.308,2.066-1.912,3.157-1.156,2.156-1.638,3.168-.892,1.967-1.219,2.846a12.383,12.383,0,0,0-.635,2.176l8.513,2.654c.345-.869.744-1.863,1.184-2.953a38.408,38.408,0,0,1,1.674-3.563,37.446,37.446,0,0,1,2.355-3.838,26.477,26.477,0,0,1,3.263-3.814,28.95,28.95,0,0,1,10.128-6.349l-3.108-7.126c-.984.333-2.018.631-3.073.884s-2.1.455-3.11.6a22.016,22.016,0,0,1-2.893.228h-.158a11.867,11.867,0,0,1-2.257-.192,3.924,3.924,0,0,1-1.65-.669,1.48,1.48,0,0,1-.61-1.231,2.5,2.5,0,0,1,.562-1.59,4.833,4.833,0,0,1,1.483-1.208,8.756,8.756,0,0,1,2.08-.789,12.435,12.435,0,0,1,2.355-.346c.182-.009.363-.014.538-.014a9.991,9.991,0,0,1,1.782.158,6.436,6.436,0,0,1,1.985.681l3.371-6.361a23.5,23.5,0,0,0-4.029-2.009A11.5,11.5,0,0,0,1673.667,832.141ZM1628.974,869.9h0a9.373,9.373,0,0,0,1.278.933,10.806,10.806,0,0,0,1.495.753,10.511,10.511,0,0,0,1.626.514,7.586,7.586,0,0,0,1.674.191h.071a11.069,11.069,0,0,0,3.372-.622,9.748,9.748,0,0,0,4.735-3.622,12.506,12.506,0,0,0,1.41-2.654,15.938,15.938,0,0,0,.826-2.989,18.363,18.363,0,0,0,.275-3.169,21.158,21.158,0,0,0-.67-5.357,26.433,26.433,0,0,0-1.829-4.926,33,33,0,0,0-2.7-4.543,52.5,52.5,0,0,0-3.312-4.2c-1.171-1.337-2.4-2.649-3.647-3.9-1.22-1.221-2.463-2.448-3.694-3.647l-2.75-2.679-6.409,6.432.029.032.036.04.39.431c.125.125.246.254.359.383.133.153.2.228.238.264l.072.071c-1.123,1.833-2.213,3.675-3.24,5.476a52.247,52.247,0,0,0-2.7,5.428,36.9,36.9,0,0,0-1.853,5.513,23.744,23.744,0,0,0-.693,5.727,15.423,15.423,0,0,0,.287,2.918,14.921,14.921,0,0,0,.861,2.869,13.779,13.779,0,0,0,1.423,2.606,10.445,10.445,0,0,0,1.961,2.129,9.063,9.063,0,0,0,2.475,1.434,8.253,8.253,0,0,0,2.989.527,6.754,6.754,0,0,0,3.025-.681,13.55,13.55,0,0,0,2.594-1.686Zm186.491-37.879h0l-7.772,4.879c.993,1.571,1.963,3.168,2.882,4.747s1.809,3.255,2.631,4.962,1.587,3.5,2.283,5.344a54.746,54.746,0,0,1,1.842,5.919,64.783,64.783,0,0,1,1.291,6.659,68.615,68.615,0,0,1,.622,7.569h8.919a41.985,41.985,0,0,1,.454-5.584c.287-1.981.685-4.036,1.184-6.11s1.1-4.209,1.782-6.326c.676-2.1,1.424-4.2,2.224-6.242s1.64-4,2.511-5.858,1.773-3.605,2.678-5.178l-7.724-4.926c-.4.812-.821,1.77-1.255,2.846s-.878,2.267-1.315,3.539c-.429,1.247-.872,2.6-1.315,4.029-.436,1.4-.867,2.852-1.28,4.3s-.808,2.928-1.172,4.376-.7,2.866-1,4.221c-.331-1.623-.772-3.445-1.315-5.416-.537-1.951-1.172-3.975-1.889-6.015s-1.522-4.078-2.4-6.086a56.093,56.093,0,0,0-2.858-5.656Zm-517.6.24-7.748,4.9c.3.536.573,1.032.8,1.435.2.347.37.685.514,1s.29.666.443,1.052.355.912.61,1.579a30.752,30.752,0,0,1,1.566,6.026c.372,2.265.654,4.723.837,7.306s.3,5.3.335,8.095.059,5.607.059,8.369h9.255c0-1.486-.024-3.12-.072-4.855-.047-1.682-.12-3.432-.215-5.2s-.208-3.526-.334-5.26-.273-3.432-.43-5.011c.168.029.311.051.394.061a.908.908,0,0,0,.1.006.624.624,0,0,0,.09-.006c.052-.008.123-.016.215-.024s.223-.012.442-.012a13.6,13.6,0,0,0,5.094-.9,10,10,0,0,0,3.754-2.606,11.534,11.534,0,0,0,2.332-4.185,18.452,18.452,0,0,0,.8-5.656c0-.426,0-.861-.011-1.292s-.032-.883-.072-1.362-.09-.987-.156-1.579-.153-1.229-.263-1.937l-8.346,1.626c.082.518.144.941.192,1.29s.084.672.107.945.036.536.036.789v.849a12.176,12.176,0,0,1-.143,1.758,7.918,7.918,0,0,1-.49,1.817,4.191,4.191,0,0,1-.933,1.423,2.107,2.107,0,0,1-1.47.6h-.083a2.245,2.245,0,0,1-1.292-.4,4.354,4.354,0,0,1-1.1-1.124,10.649,10.649,0,0,1-.9-1.578c-.273-.587-.538-1.178-.788-1.757v.048c-.313-.761-.6-1.452-.837-2-.22-.511-.438-.985-.646-1.411s-.432-.839-.682-1.268S1298.257,832.869,1297.868,832.26Zm132.446.67-7.628,4.4a30.609,30.609,0,0,1,2.846,6.863,52.709,52.709,0,0,1,1.482,7.269,68.186,68.186,0,0,1,.561,7.2c.055,2.327.084,4.563.084,6.648,0,.338,0,.821-.012,1.4-.008.63-.021,1.286-.036,1.95-.014.62-.033,1.258-.059,1.948-.025.625-.045,1.082-.06,1.4h9.375c0-1.543-.012-3.216-.036-4.973-.025-1.809-.061-3.611-.108-5.357-.048-1.817-.121-3.608-.215-5.321s-.215-3.356-.358-4.842c.189.013.386.02.586.02a8.939,8.939,0,0,0,1.494-.128,9.1,9.1,0,0,0,1.973-.562,6.374,6.374,0,0,0,1.638-.98,3.911,3.911,0,0,0,1.077-1.387,6.557,6.557,0,0,0,1.351,1.268,7.543,7.543,0,0,0,1.483.8,7.261,7.261,0,0,0,1.47.419,8.153,8.153,0,0,0,1.315.12,8.7,8.7,0,0,0,2.869-.443,7.077,7.077,0,0,0,2.212-1.231,7.978,7.978,0,0,0,1.615-1.842,10.189,10.189,0,0,0,1.075-2.284,15.005,15.005,0,0,0,.6-2.559,18.885,18.885,0,0,0,.191-2.666c0-.489,0-.976-.012-1.447s-.041-1.026-.1-1.625-.145-1.34-.263-2.165c-.122-.84-.295-1.878-.514-3.084l-7.556,1.53a30.222,30.222,0,0,1,.5,2.989,22.133,22.133,0,0,1,.167,3,9.463,9.463,0,0,1-.3,2.367c-.183.643-.485,1.009-.9,1.088a.9.9,0,0,1-.182.019.872.872,0,0,1-.655-.317,3.557,3.557,0,0,1-.634-1.112,11.322,11.322,0,0,1-.478-1.674c-.135-.635-.256-1.3-.359-1.985s-.19-1.359-.263-2.044c-.07-.658-.13-1.282-.179-1.854l-7.246.909c.016.552.04,1.143.072,1.758s.051,1.257.06,1.9,0,1.261-.036,1.842a9.332,9.332,0,0,1-.2,1.566,3.256,3.256,0,0,1-.431,1.088.845.845,0,0,1-.729.407,2.3,2.3,0,0,1-1.83-.98,13.812,13.812,0,0,1-1.662-3.085c-.354-.782-.656-1.47-.9-2.044-.231-.551-.452-1.05-.657-1.483s-.427-.868-.646-1.267S1430.664,833.473,1430.313,832.93Zm44-.215-7.892,4.878a31.6,31.6,0,0,1,3.061,7.2,58.863,58.863,0,0,1,1.758,8.345c.4,2.92.674,5.989.8,9.123s.192,6.341.192,9.529h9.255c0-2.788-.04-5.693-.12-8.632-.08-2.916-.273-5.973-.574-9.087a13.814,13.814,0,0,0,2.642.645,19.736,19.736,0,0,0,2.762.192,17.409,17.409,0,0,0,2.523-.192,17.8,17.8,0,0,0,2.69-.622,20.449,20.449,0,0,0,2.845-1.136,24.406,24.406,0,0,0,3.013-1.757l-3.778-7.127a14.387,14.387,0,0,1-1.937.908,20.542,20.542,0,0,1-1.986.647,16.673,16.673,0,0,1-1.865.394,11,11,0,0,1-1.6.131,14.544,14.544,0,0,1-1.782-.131,14.339,14.339,0,0,1-2.032-.407,8.2,8.2,0,0,1-1.722-.67,1.417,1.417,0,0,1-.825-.921A1.207,1.207,0,0,1,1480.2,843a6.263,6.263,0,0,1,1.4-1.063,9.959,9.959,0,0,1,1.865-.826,6,6,0,0,1,1.853-.335c.551,0,1.106.024,1.65.072s1.055.111,1.543.191a12.037,12.037,0,0,1,1.351.3,7.209,7.209,0,0,1,1.076.395l4.3-6.481a14.1,14.1,0,0,0-4.532-2.642,13.872,13.872,0,0,0-4.245-.706,11.3,11.3,0,0,0-2.81.359,14.489,14.489,0,0,0-2.726,1,15.619,15.619,0,0,0-2.523,1.543,14.6,14.6,0,0,0-2.152,1.973c-.106-.333-.21-.647-.311-.932-.094-.268-.207-.549-.335-.837a9.221,9.221,0,0,0-.5-.957Zm-212.77-2.033h0l-7.676,4.783a28,28,0,0,1,1.985,4.807,49.025,49.025,0,0,1,1.363,5.536c.365,1.943.654,3.99.861,6.086s.367,4.254.479,6.432.179,4.387.2,6.6c.023,2.187.035,4.4.035,6.577h9.255v-4.042c0-1.308-.008-2.74-.024-4.256-.016-1.5-.052-3.037-.107-4.579s-.133-3.074-.228-4.544-.223-2.877-.383-4.149c-.221-1.677-.467-3.359-.729-5s-.608-3.271-1.029-4.866a38.7,38.7,0,0,0-1.589-4.747,29.529,29.529,0,0,0-2.415-4.64Zm21.164,76.282h0c-.13,0-.283,0-.483-.007-.177-.005-.363-.015-.554-.03s-.382-.038-.558-.067a3.412,3.412,0,0,1-.488-.114,1.128,1.128,0,0,1-.344-.174.306.306,0,0,1-.13-.244,1.433,1.433,0,0,1,.078-.447,1.825,1.825,0,0,1,.214-.451,1.385,1.385,0,0,1,.321-.352.651.651,0,0,1,.4-.14.98.98,0,0,1,.577.189,1.941,1.941,0,0,1,.469.48,2.822,2.822,0,0,1,.333.654,3.153,3.153,0,0,1,.166.7Zm358.108-1.1h0a1.861,1.861,0,0,1-.369-.194,2.437,2.437,0,0,1-.348-.282,1.506,1.506,0,0,1-.261-.337.761.761,0,0,1-.1-.37.872.872,0,0,1,.119-.437,1.615,1.615,0,0,1,.285-.372,1.792,1.792,0,0,1,.351-.272,1.679,1.679,0,0,1,.317-.151,1.384,1.384,0,0,1,.282.151,1.937,1.937,0,0,1,.317.267,1.528,1.528,0,0,1,.257.367.963.963,0,0,1,.1.447.938.938,0,0,1-.087.4,1.372,1.372,0,0,1-.223.334,1.675,1.675,0,0,1-.306.263A2.014,2.014,0,0,1,1640.815,905.863Zm188.322-.462h-.033a3.77,3.77,0,0,1-.595-.049,2.384,2.384,0,0,1-.47-.117c-.128-.051-.2-.1-.205-.144a.442.442,0,0,1,.122-.3,3.052,3.052,0,0,1,.372-.411,4.566,4.566,0,0,1,.522-.418,2.916,2.916,0,0,1,.577-.313l.251,1.683A2.1,2.1,0,0,1,1829.138,905.4ZM1627,905.4h-.033a3.786,3.786,0,0,1-.595-.049,2.382,2.382,0,0,1-.47-.117c-.129-.051-.2-.1-.2-.144a.438.438,0,0,1,.122-.3,3.026,3.026,0,0,1,.371-.411,4.514,4.514,0,0,1,.522-.418,2.892,2.892,0,0,1,.577-.313l.251,1.683A2.1,2.1,0,0,1,1627,905.4Zm39.595-1.68a3.682,3.682,0,0,1-.453-.031,4.732,4.732,0,0,1-.476-.091,4.277,4.277,0,0,1-.431-.129,1.4,1.4,0,0,1-.31-.15c-.079-.053-.119-.105-.119-.156a1.206,1.206,0,0,1,.063-.363,1.222,1.222,0,0,1,.185-.357.976.976,0,0,1,.3-.266.629.629,0,0,1,.321-.083.73.73,0,0,1,.076,0,.68.68,0,0,1,.386.173,1.946,1.946,0,0,1,.351.391,3.084,3.084,0,0,1,.282.5,3.251,3.251,0,0,1,.185.514A1.238,1.238,0,0,1,1666.6,903.721Zm-31.667-39.8a.9.9,0,0,1-.73-.382,3.135,3.135,0,0,1-.49-1.017,9.123,9.123,0,0,1-.3-1.447c-.071-.535-.12-1.09-.144-1.65s-.039-1.113-.048-1.65c-.008-.507-.012-.99-.012-1.435l-6.672.837c-.063.828-.152,1.649-.263,2.439a10.416,10.416,0,0,1-.515,2.14,4.137,4.137,0,0,1-.921,1.518,2.011,2.011,0,0,1-1.483.574,1.358,1.358,0,0,1-.825-.358,4.5,4.5,0,0,1-.824-.9,5.827,5.827,0,0,1-.647-1.184,3.252,3.252,0,0,1-.262-1.219,15.193,15.193,0,0,1,.645-4.341,26.356,26.356,0,0,1,1.675-4.22,41.075,41.075,0,0,1,2.3-4.006c.85-1.306,1.695-2.557,2.511-3.718l1.619,1.651.761.776c.807.824,1.592,1.664,2.331,2.5s1.457,1.7,2.128,2.559a21,21,0,0,1,1.746,2.619,14.706,14.706,0,0,1,1.171,2.666,8.826,8.826,0,0,1,.431,2.7,5.042,5.042,0,0,1-.227,1.4,6.764,6.764,0,0,1-.634,1.482,4.257,4.257,0,0,1-.992,1.183A2.048,2.048,0,0,1,1634.929,863.922Z" transform="translate(-1049 135)" fill="#fff"/></g></g><g transform="translate(64 920)" fill="#fff" stroke="#707070" stroke-width="1"><rect width="799" height="153" stroke="none"/><rect x="0.5" y="0.5" width="798" height="152" fill="none"/></g></g></svg>