<svg xmlns="http://www.w3.org/2000/svg" width="954.791" height="262.715" viewBox="0 0 954.791 262.715">
  <g id="Group_1265" data-name="Group 1265" transform="translate(-884 -107.285)">
    <path id="Path_7706" data-name="Path 7706" d="M-835.295,0a.751.751,0,0,1-.85-.85V-15.64a.751.751,0,0,1,.85-.85h9.18a.751.751,0,0,1,.85.85V-.85a.751.751,0,0,1-.85.85Zm9.18,0a.751.751,0,0,1-.85-.85V-15.64a.751.751,0,0,1,.85-.85h9.18a.751.751,0,0,1,.85.85V-.85a.751.751,0,0,1-.85.85Zm9.18,0a.751.751,0,0,1-.85-.85V-15.64a.751.751,0,0,1,.85-.85h9.18a.751.751,0,0,1,.85.85V-.85a.751.751,0,0,1-.85.85Zm9.18,0a.751.751,0,0,1-.85-.85V-15.64a.751.751,0,0,1,.85-.85h9.18a.751.751,0,0,1,.85.85V-.85a.751.751,0,0,1-.85.85Zm9.18,0a.751.751,0,0,1-.85-.85V-15.64a.751.751,0,0,1,.85-.85h9.18a.751.751,0,0,1,.85.85V-.85a.751.751,0,0,1-.85.85Zm9.18,0a.751.751,0,0,1-.85-.85V-15.64a.751.751,0,0,1,.85-.85h9.18a.751.751,0,0,1,.85.85V-.85a.751.751,0,0,1-.85.85Zm9.18,0a.751.751,0,0,1-.85-.85V-15.64a.751.751,0,0,1,.85-.85h9.18a.751.751,0,0,1,.85.85V-.85a.751.751,0,0,1-.85.85Zm9.18,0a.751.751,0,0,1-.85-.85V-15.64a.751.751,0,0,1,.85-.85h9.18a.751.751,0,0,1,.85.85V-.85a.751.751,0,0,1-.85.85Zm9.18,0a.751.751,0,0,1-.85-.85V-15.64a.751.751,0,0,1,.85-.85h9.18a.751.751,0,0,1,.85.85V-.85a.751.751,0,0,1-.85.85Zm9.18,0a.751.751,0,0,1-.85-.85V-15.64a.751.751,0,0,1,.85-.85h9.18a.751.751,0,0,1,.85.85V-.85a.751.751,0,0,1-.85.85Zm9.18,0a.751.751,0,0,1-.85-.85V-15.64a.751.751,0,0,1,.85-.85h9.18a.751.751,0,0,1,.85.85V-.85a.751.751,0,0,1-.85.85Zm9.18,0a.751.751,0,0,1-.85-.85V-15.64a.751.751,0,0,1,.85-.85h9.18a.751.751,0,0,1,.85.85V-.85a.751.751,0,0,1-.85.85Zm9.18,0a.751.751,0,0,1-.85-.85V-15.64a.751.751,0,0,1,.85-.85h9.18a.751.751,0,0,1,.85.85V-.85a.751.751,0,0,1-.85.85Zm9.18,0a.751.751,0,0,1-.85-.85V-15.64a.751.751,0,0,1,.85-.85h11.135a1.631,1.631,0,0,0,1.19-.51,1.73,1.73,0,0,0,.51-1.275V-36.89h15.64v19.635a16.88,16.88,0,0,1-2.295,8.628,17.376,17.376,0,0,1-6.205,6.29A16.576,16.576,0,0,1-704.65,0Zm2.295,6.8h13.175V19.975H-713.66Zm13.175,0h13.175V19.975h-13.175Zm17.935-23.29h20.91q2.975,0,2.975-2.38a11.851,11.851,0,0,0-.51-2.04l-8.5-22.95,14.875-5.525,11.05,30.43a5.6,5.6,0,0,0,1.105,1.87,2.554,2.554,0,0,0,1.87.6.751.751,0,0,1,.85.85V-.85a.751.751,0,0,1-.85.85h-.85a14.382,14.382,0,0,1-5.95-1.148,12.447,12.447,0,0,1-3.995-2.678,18.633,18.633,0,0,1-5.525,3.1A23.445,23.445,0,0,1-661.64,0h-20.91ZM-638.775,0a.751.751,0,0,1-.85-.85V-15.64a.751.751,0,0,1,.85-.85h9.18a.751.751,0,0,1,.85.85V-.85a.751.751,0,0,1-.85.85Zm9.18,0a.751.751,0,0,1-.85-.85V-15.64a.751.751,0,0,1,.85-.85h9.18a.751.751,0,0,1,.85.85V-.85a.751.751,0,0,1-.85.85Zm9.18,0a.751.751,0,0,1-.85-.85V-15.64a.751.751,0,0,1,.85-.85h9.18a.751.751,0,0,1,.85.85V-.85a.751.751,0,0,1-.85.85Zm9.18,0a.751.751,0,0,1-.85-.85V-15.64a.751.751,0,0,1,.85-.85h9.18a.751.751,0,0,1,.85.85V-.85a.751.751,0,0,1-.85.85Zm9.18,0a.751.751,0,0,1-.85-.85V-15.64a.751.751,0,0,1,.85-.85h9.18a.751.751,0,0,1,.85.85V-.85a.751.751,0,0,1-.85.85Zm9.18,0a.751.751,0,0,1-.85-.85V-15.64a.751.751,0,0,1,.85-.85h21.08q1.7,0,1.7-1.785v-.255h-1.7a19.361,19.361,0,0,1-9.35-2.3,17.944,17.944,0,0,1-6.758-6.247,16.084,16.084,0,0,1-2.507-8.8,18.435,18.435,0,0,1,2.55-9.52,18.863,18.863,0,0,1,6.842-6.843,17.978,17.978,0,0,1,9.223-2.507,16.232,16.232,0,0,1,8.883,2.507,17.537,17.537,0,0,1,6.2,6.8,20.262,20.262,0,0,1,2.253,9.562v18.615a16.88,16.88,0,0,1-2.295,8.628,17.376,17.376,0,0,1-6.205,6.29A16.576,16.576,0,0,1-571.625,0Zm23.8-32.98v-3.485a3.19,3.19,0,0,0-.977-2.338,3.19,3.19,0,0,0-2.338-.978,3.333,3.333,0,0,0-2.465.935,3.224,3.224,0,0,0-.935,2.38,3.479,3.479,0,0,0,.935,2.507,3.254,3.254,0,0,0,2.465.978ZM-584.97-74.715h13.175V-61.54H-584.97Zm13.175,0h13.175V-61.54h-13.175ZM-540,0a.751.751,0,0,1-.85-.85V-15.64a.751.751,0,0,1,.85-.85h9.18a.751.751,0,0,1,.85.85V-.85a.751.751,0,0,1-.85.85Zm9.18,0a.751.751,0,0,1-.85-.85V-15.64a.751.751,0,0,1,.85-.85h9.18a.751.751,0,0,1,.85.85V-.85a.751.751,0,0,1-.85.85Zm9.18,0a.751.751,0,0,1-.85-.85V-15.64a.751.751,0,0,1,.85-.85h9.18a.751.751,0,0,1,.85.85V-.85a.751.751,0,0,1-.85.85Zm9.18,0a.751.751,0,0,1-.85-.85V-15.64a.751.751,0,0,1,.85-.85h9.18a.751.751,0,0,1,.85.85V-.85a.751.751,0,0,1-.85.85Zm9.18,0a.751.751,0,0,1-.85-.85V-15.64a.751.751,0,0,1,.85-.85h9.18a.751.751,0,0,1,.85.85V-.85a.751.751,0,0,1-.85.85Zm9.18,0a.751.751,0,0,1-.85-.85V-15.64a.751.751,0,0,1,.85-.85h9.18a.751.751,0,0,1,.85.85V-.85a.751.751,0,0,1-.85.85Zm9.18,0a.751.751,0,0,1-.85-.85V-15.64a.751.751,0,0,1,.85-.85h9.18a.751.751,0,0,1,.85.85V-.85a.751.751,0,0,1-.85.85Zm9.18,0a.751.751,0,0,1-.85-.85V-15.64a.751.751,0,0,1,.85-.85h9.18a.751.751,0,0,1,.85.85V-.85a.751.751,0,0,1-.85.85Zm51,.17q-7.055,0-10.668-4.845t-3.612-12.495V-34.51h12.495v16.32a1.934,1.934,0,0,0,.467,1.36,1.7,1.7,0,0,0,1.318.51,1.7,1.7,0,0,0,1.318-.51,1.934,1.934,0,0,0,.467-1.36v-18.7h12.495v19.72q0,7.65-3.613,12.495T-424.745.17ZM-466.565,0a.751.751,0,0,1-.85-.85V-15.64a.751.751,0,0,1,.85-.85h3.4a1.7,1.7,0,0,0,1.318-.51,1.934,1.934,0,0,0,.467-1.36V-34.51h12.495v17.17q0,7.65-3.612,12.495T-463.165,0Zm22.61.17q-7.055,0-10.667-4.845t-3.613-12.495V-34.51h12.5v16.32a1.934,1.934,0,0,0,.467,1.36,1.7,1.7,0,0,0,1.317.51,1.7,1.7,0,0,0,1.318-.51,1.934,1.934,0,0,0,.467-1.36V-34.51h12.5v17.34q0,7.65-3.613,12.495T-443.955.17Zm38.42-.17Q-412.59,0-416.2-4.845t-3.612-12.495V-36.89h12.495v18.53a1.934,1.934,0,0,0,.467,1.36,1.7,1.7,0,0,0,1.318.51h3.4a.751.751,0,0,1,.85.85V-.85a.751.751,0,0,1-.85.85Zm3.4,0a.751.751,0,0,1-.85-.85V-15.64a.751.751,0,0,1,.85-.85h9.18a.751.751,0,0,1,.85.85V-.85a.751.751,0,0,1-.85.85Zm9.18,0a.751.751,0,0,1-.85-.85V-15.64a.751.751,0,0,1,.85-.85h9.18a.751.751,0,0,1,.85.85V-.85a.751.751,0,0,1-.85.85Zm9.18,0a.751.751,0,0,1-.85-.85V-15.64a.751.751,0,0,1,.85-.85h9.18a.751.751,0,0,1,.85.85V-.85a.751.751,0,0,1-.85.85Zm9.18,0a.751.751,0,0,1-.85-.85V-15.64a.751.751,0,0,1,.85-.85h9.18a.751.751,0,0,1,.85.85V-.85a.751.751,0,0,1-.85.85Zm9.18,0a.751.751,0,0,1-.85-.85V-15.64a.751.751,0,0,1,.85-.85h9.18a.751.751,0,0,1,.85.85V-.85a.751.751,0,0,1-.85.85Zm9.18,0a.751.751,0,0,1-.85-.85V-15.64a.751.751,0,0,1,.85-.85h9.18a.751.751,0,0,1,.85.85V-.85a.751.751,0,0,1-.85.85Zm9.18,0a.751.751,0,0,1-.85-.85V-15.64a.751.751,0,0,1,.85-.85h9.18a.751.751,0,0,1,.85.85V-.85a.751.751,0,0,1-.85.85Zm9.18,0a.751.751,0,0,1-.85-.85V-15.64a.751.751,0,0,1,.85-.85h9.18a.751.751,0,0,1,.85.85V-.85a.751.751,0,0,1-.85.85Zm9.18,0a.751.751,0,0,1-.85-.85V-15.64a.751.751,0,0,1,.85-.85h9.18a.751.751,0,0,1,.85.85V-.85a.751.751,0,0,1-.85.85Zm9.18,0a.751.751,0,0,1-.85-.85V-15.64a.751.751,0,0,1,.85-.85h19.465a3.947,3.947,0,0,0,2.635-.935,3.469,3.469,0,0,0,1.1-2.8,3.514,3.514,0,0,0-1.955-3.06L-316.71-35.615v-11.56l17.34-18.445,10.71,10.2-11.56,11.985,11.56,7.65a16.389,16.389,0,0,1,5.908,6.715,20.581,20.581,0,0,1,2.082,9.18A19.566,19.566,0,0,1-283.3-9.9a19.946,19.946,0,0,1-7.1,7.225A18.725,18.725,0,0,1-300.22,0Zm40.63,0q-7.055,0-10.668-4.845t-3.612-12.495l12.495-2.55v1.53q0,1.87,1.785,1.87h3.4a.751.751,0,0,1,.85.85V-.85a.751.751,0,0,1-.85.85Zm3.4,0a.751.751,0,0,1-.85-.85V-15.64a.751.751,0,0,1,.85-.85h9.18a.751.751,0,0,1,.85.85V-.85a.751.751,0,0,1-.85.85Zm9.18,0a.751.751,0,0,1-.85-.85V-15.64a.751.751,0,0,1,.85-.85h9.18a.751.751,0,0,1,.85.85V-.85a.751.751,0,0,1-.85.85Zm9.18,0a.751.751,0,0,1-.85-.85V-15.64a.751.751,0,0,1,.85-.85h9.18a.751.751,0,0,1,.85.85V-.85a.751.751,0,0,1-.85.85Zm9.18,0a.751.751,0,0,1-.85-.85V-15.64a.751.751,0,0,1,.85-.85h9.18a.751.751,0,0,1,.85.85V-.85a.751.751,0,0,1-.85.85Zm9.18,0a.751.751,0,0,1-.85-.85V-15.64a.751.751,0,0,1,.85-.85h9.18a.751.751,0,0,1,.85.85V-.85a.751.751,0,0,1-.85.85Zm9.18,0a.751.751,0,0,1-.85-.85V-15.64a.751.751,0,0,1,.85-.85h9.18a.751.751,0,0,1,.85.85V-.85a.751.751,0,0,1-.85.85Zm9.18,0a.751.751,0,0,1-.85-.85V-15.64a.751.751,0,0,1,.85-.85h9.18a.751.751,0,0,1,.85.85V-.85a.751.751,0,0,1-.85.85Zm34.6-3.4a26.6,26.6,0,0,1-10.8-2.125,18.179,18.179,0,0,1-7.692-6.12A15.69,15.69,0,0,1-207.145-21,19.114,19.114,0,0,1-204.3-31.28a19.89,19.89,0,0,1,7.735-7.182,22.587,22.587,0,0,1,10.753-2.592h9.35V-25.67h-9.35a4.956,4.956,0,0,0-3.528,1.233,4.375,4.375,0,0,0-1.317,3.358,4.423,4.423,0,0,0,1.275,3.4,5.032,5.032,0,0,0,3.57,1.19ZM-211.225,0a.751.751,0,0,1-.85-.85V-15.64a.751.751,0,0,1,.85-.85h37.06V0Zm73.78-2.55a19.543,19.543,0,0,1-10.073-2.72,20.43,20.43,0,0,1-7.352-7.31,19.164,19.164,0,0,1-2.72-9.945,17.645,17.645,0,0,1,2.72-9.647,18.975,18.975,0,0,1,7.31-6.715,21.333,21.333,0,0,1,10.115-2.423h3.315v-5.95h15.47v24.735a21.157,21.157,0,0,1-2.422,10.03C-122.7-9.435-133.875-2.55-137.445-2.55Zm0-16.49a3.118,3.118,0,0,0,2.423-.977,3.575,3.575,0,0,0,.893-2.508V-25.67h-3.315a3.648,3.648,0,0,0-2.55.85,2.948,2.948,0,0,0-.935,2.3,3.479,3.479,0,0,0,.935,2.508A3.362,3.362,0,0,0-137.445-19.04ZM-116.875,0a14.648,14.648,0,0,1-8.245-2.3,14.4,14.4,0,0,1-5.27-6.248,21.135,21.135,0,0,1-1.785-8.8V-34.51h13.515v16.15a1.934,1.934,0,0,0,.468,1.36,1.7,1.7,0,0,0,1.317.51h3.4a.751.751,0,0,1,.85.85V-.85a.751.751,0,0,1-.85.85Zm3.4,0a.751.751,0,0,1-.85-.85V-15.64a.751.751,0,0,1,.85-.85h9.18a.751.751,0,0,1,.85.85V-.85a.751.751,0,0,1-.85.85Zm9.18,0a.751.751,0,0,1-.85-.85V-15.64a.751.751,0,0,1,.85-.85h9.18a.751.751,0,0,1,.85.85V-.85a.751.751,0,0,1-.85.85Zm9.18,0a.751.751,0,0,1-.85-.85V-15.64a.751.751,0,0,1,.85-.85h9.18a.751.751,0,0,1,.85.85V-.85a.751.751,0,0,1-.85.85Zm9.18,0a.751.751,0,0,1-.85-.85V-15.64a.751.751,0,0,1,.85-.85h9.18a.751.751,0,0,1,.85.85V-.85a.751.751,0,0,1-.85.85Zm9.18,0a.751.751,0,0,1-.85-.85V-15.64a.751.751,0,0,1,.85-.85h9.18a.751.751,0,0,1,.85.85V-.85a.751.751,0,0,1-.85.85Zm9.18,0a.751.751,0,0,1-.85-.85V-15.64a.751.751,0,0,1,.85-.85h9.18a.751.751,0,0,1,.85.85V-.85a.751.751,0,0,1-.85.85Zm9.18,0a.751.751,0,0,1-.85-.85V-15.64a.751.751,0,0,1,.85-.85h9.18a.751.751,0,0,1,.85.85V-.85a.751.751,0,0,1-.85.85Zm9.18,0a.751.751,0,0,1-.85-.85V-15.64a.751.751,0,0,1,.85-.85h9.18a.751.751,0,0,1,.85.85V-.85a.751.751,0,0,1-.85.85Zm9.18,0a.751.751,0,0,1-.85-.85V-15.64a.751.751,0,0,1,.85-.85h9.18a.751.751,0,0,1,.85.85V-.85a.751.751,0,0,1-.85.85Zm9.18,0a.751.751,0,0,1-.85-.85V-15.64a.751.751,0,0,1,.85-.85H-19.72A1.631,1.631,0,0,0-18.53-17a1.73,1.73,0,0,0,.51-1.275V-36.89H-2.38v19.635A16.879,16.879,0,0,1-4.675-8.628a17.376,17.376,0,0,1-6.205,6.29A16.576,16.576,0,0,1-19.55,0Zm2.3,6.8h13.175V19.975H-28.56Zm13.175,0H-2.21V19.975H-15.385Zm-920.21,111.935a.751.751,0,0,1,.85.85v7.565a.751.751,0,0,1-.85.85S-939.414,118.735-935.595,118.735Zm0,9.265a.751.751,0,0,1-.85-.85v-7.565a.751.751,0,0,1,.85-.85h13.685a.751.751,0,0,1,.85.85v7.565a.751.751,0,0,1-.85.85Zm13.685,0a.751.751,0,0,1-.85-.85v-7.565a.751.751,0,0,1,.85-.85h13.685a.751.751,0,0,1,.85.85v7.565a.751.751,0,0,1-.85.85Zm13.685,0a.751.751,0,0,1-.85-.85v-7.565a.751.751,0,0,1,.85-.85h13.685a.751.751,0,0,1,.85.85v7.565a.751.751,0,0,1-.85.85Zm13.685,0a.751.751,0,0,1-.85-.85v-7.565a.751.751,0,0,1,.85-.85h13.685a.751.751,0,0,1,.85.85v7.565a.751.751,0,0,1-.85.85Zm13.685,0a.751.751,0,0,1-.85-.85v-7.565a.751.751,0,0,1,.85-.85h13.685a.751.751,0,0,1,.85.85v7.565a.751.751,0,0,1-.85.85Zm13.685,0a.751.751,0,0,1-.85-.85v-7.565a.751.751,0,0,1,.85-.85h13.685a.751.751,0,0,1,.85.85v7.565a.751.751,0,0,1-.85.85Zm13.685,0a.751.751,0,0,1-.85-.85v-7.565a.751.751,0,0,1,.85-.85H-839.8a.751.751,0,0,1,.85.85v7.565a.751.751,0,0,1-.85.85Zm13.685,0a.751.751,0,0,1-.85-.85v-7.565a.751.751,0,0,1,.85-.85h13.685a.751.751,0,0,1,.85.85v7.565a.751.751,0,0,1-.85.85Zm13.685,0a.751.751,0,0,1-.85-.85v-7.565a.751.751,0,0,1,.85-.85h13.685a.751.751,0,0,1,.85.85v7.565a.751.751,0,0,1-.85.85Zm13.685,0a.751.751,0,0,1-.85-.85v-7.565a.751.751,0,0,1,.85-.85h13.685a.751.751,0,0,1,.85.85v7.565a.751.751,0,0,1-.85.85Zm13.685,0a.751.751,0,0,1-.85-.85v-7.565a.751.751,0,0,1,.85-.85h13.685a.751.751,0,0,1,.85.85v7.565a.751.751,0,0,1-.85.85Zm13.685,0a.751.751,0,0,1-.85-.85v-7.565a.751.751,0,0,1,.85-.85h13.685a.751.751,0,0,1,.85.85v7.565a.751.751,0,0,1-.85.85Zm13.685,0a.751.751,0,0,1-.85-.85v-7.565a.751.751,0,0,1,.85-.85h13.685a.751.751,0,0,1,.85.85v7.565a.751.751,0,0,1-.85.85Zm59.16,0a11.775,11.775,0,0,1-9.562-4.25,15.95,15.95,0,0,1-3.527-10.54V99.015h7.055V112.7a5.763,5.763,0,0,0,1.785,4.293,5.875,5.875,0,0,0,4.25,1.743h4.675V96.465h8.755V128Zm-45.475,0a.751.751,0,0,1-.85-.85v-7.565a.751.751,0,0,1,.85-.85h3.825a5.875,5.875,0,0,0,4.25-1.743,5.763,5.763,0,0,0,1.785-4.293V99.015h7.055V113.21a15.95,15.95,0,0,1-3.527,10.54,11.775,11.775,0,0,1-9.562,4.25Zm24.65.17a11.774,11.774,0,0,1-9.562-4.25,15.95,15.95,0,0,1-3.528-10.54V99.015h7.055V112.87a5.763,5.763,0,0,0,1.785,4.292,5.874,5.874,0,0,0,4.25,1.743,5.833,5.833,0,0,0,4.292-1.743A5.833,5.833,0,0,0-727,112.87V99.015h7.055V113.38a15.95,15.95,0,0,1-3.527,10.54A11.775,11.775,0,0,1-733.04,128.17Zm34.765,15.385a89.84,89.84,0,0,0,8.883-5.483,12.034,12.034,0,0,0,3.91-4.76,18.817,18.817,0,0,0,1.233-7.522V99.015h8.755v26.69a27.187,27.187,0,0,1-1.87,10.88,19.081,19.081,0,0,1-5.907,7.395,68.713,68.713,0,0,1-11.687,6.885ZM-669.46,128q-5.95,0-9.138-4.165a16.984,16.984,0,0,1-3.187-10.625V99.015h6.29V112.7a5.833,5.833,0,0,0,1.742,4.293,5.833,5.833,0,0,0,4.292,1.743h3.825a.751.751,0,0,1,.85.85v7.565a.751.751,0,0,1-.85.85Zm2.125-17.425a16.428,16.428,0,0,1,2.295-8.542,16.414,16.414,0,0,1,6.29-6.077,17.619,17.619,0,0,1,8.67-2.21,17.619,17.619,0,0,1,8.67,2.21,16.414,16.414,0,0,1,6.29,6.077,16.428,16.428,0,0,1,2.295,8.542,16.141,16.141,0,0,1-2.295,8.543,16.069,16.069,0,0,1-6.247,5.908,18.1,18.1,0,0,1-8.713,2.125,18.1,18.1,0,0,1-8.713-2.125,16.069,16.069,0,0,1-6.247-5.908A16.141,16.141,0,0,1-667.335,110.575ZM-671.33,128a.751.751,0,0,1-.85-.85v-7.565a.751.751,0,0,1,.85-.85h42.5a.751.751,0,0,1,.85.85v7.565a.751.751,0,0,1-.85.85Zm13.26-17.085a7.454,7.454,0,0,0,2.295,5.61,7.89,7.89,0,0,0,5.7,2.21,7.89,7.89,0,0,0,5.7-2.21,7.454,7.454,0,0,0,2.295-5.61,7.631,7.631,0,0,0-2.295-5.61,7.733,7.733,0,0,0-5.7-2.295,7.733,7.733,0,0,0-5.7,2.295A7.631,7.631,0,0,0-658.07,110.915Zm3.655-33.15h8.67V86.35h-8.67ZM-628.83,128a.751.751,0,0,1-.85-.85v-7.565a.751.751,0,0,1,.85-.85h13.685a.751.751,0,0,1,.85.85v7.565a.751.751,0,0,1-.85.85Zm13.685,0a.751.751,0,0,1-.85-.85v-7.565a.751.751,0,0,1,.85-.85h13.685a.751.751,0,0,1,.85.85v7.565a.751.751,0,0,1-.85.85Zm13.685,0a.751.751,0,0,1-.85-.85v-7.565a.751.751,0,0,1,.85-.85h4.165a5.8,5.8,0,0,0,4.25-1.785,5.9,5.9,0,0,0,1.785-4.335V96.465h8.755v16.66a14.74,14.74,0,0,1-1.955,7.48,14.606,14.606,0,0,1-5.355,5.4,14.5,14.5,0,0,1-7.48,2Zm0,7.65h8.67v8.67h-8.67Zm69.955,8.16a24.744,24.744,0,0,1-12.75-3.443,25.715,25.715,0,0,1-9.307-9.307A24.744,24.744,0,0,1-557,118.31v-15.9h8.755V117.8A16.507,16.507,0,0,0-546,126.257a16.684,16.684,0,0,0,6.12,6.12,16.35,16.35,0,0,0,8.372,2.253,16.506,16.506,0,0,0,8.457-2.253,16.684,16.684,0,0,0,6.12-6.12,16.507,16.507,0,0,0,2.253-8.457V99.015h8.755V118.31a24.744,24.744,0,0,1-3.443,12.75,25.715,25.715,0,0,1-9.308,9.307A24.9,24.9,0,0,1-531.5,143.81Zm-4.42-50.745h8.67v8.67h-8.67Zm45.645,50.065q7.9-3.4,11.688-5.482a16.165,16.165,0,0,0,5.355-4.25,8.949,8.949,0,0,0,1.573-5.4h-7.82a17.819,17.819,0,0,1-8.712-2.168,16.6,16.6,0,0,1-6.29-5.993,15.981,15.981,0,0,1-2.337-8.5,16.421,16.421,0,0,1,2.337-8.585,17.718,17.718,0,0,1,6.29-6.247,16.8,16.8,0,0,1,8.712-2.338,16.05,16.05,0,0,1,8.415,2.295,16.282,16.282,0,0,1,5.992,6.248,17.65,17.65,0,0,1,2.168,8.627v13.175q0,7.055-2.508,11.475a21.325,21.325,0,0,1-7.48,7.522,121.116,121.116,0,0,1-14.663,7.353Zm10.795-23.885h7.82v-7.9a7.773,7.773,0,0,0-2.3-5.652,7.464,7.464,0,0,0-5.525-2.338,7.8,7.8,0,0,0-5.737,2.338,7.7,7.7,0,0,0-2.338,5.652,7.523,7.523,0,0,0,2.338,5.653A7.954,7.954,0,0,0-479.485,119.245Zm16.15-.51h4.845a.751.751,0,0,1,.85.85v7.565a.751.751,0,0,1-.85.85h-4.845ZM-458.49,128a.751.751,0,0,1-.85-.85v-7.565a.751.751,0,0,1,.85-.85H-444.8a.751.751,0,0,1,.85.85v7.565a.751.751,0,0,1-.85.85Zm41.31.17a15.984,15.984,0,0,1-8.457-2.295,16.3,16.3,0,0,1-5.95-6.29,17.892,17.892,0,0,1-2.168-8.67V103.1h-5.1V94.34h21.675a17.819,17.819,0,0,1,8.712,2.168,16.6,16.6,0,0,1,6.29,5.993,15.829,15.829,0,0,1,2.337,8.415,16.644,16.644,0,0,1-2.337,8.627,17.608,17.608,0,0,1-6.29,6.29A16.8,16.8,0,0,1-417.18,128.17ZM-444.8,128a.751.751,0,0,1-.85-.85v-7.565a.751.751,0,0,1,.85-.85h5.015a5.874,5.874,0,0,0,4.25-1.743,5.763,5.763,0,0,0,1.785-4.293v-7.9h7.055v8.415a15.95,15.95,0,0,1-3.527,10.54A11.775,11.775,0,0,1-439.79,128Zm27.625-9.1a7.875,7.875,0,0,0,5.737-2.295,7.661,7.661,0,0,0,2.338-5.695,7.424,7.424,0,0,0-2.338-5.568,7.954,7.954,0,0,0-5.737-2.252h-7.9v7.82a7.733,7.733,0,0,0,2.3,5.695A7.631,7.631,0,0,0-417.18,118.9ZM-391,71.56h8.755V128H-391Zm10.03,72a89.844,89.844,0,0,0,8.883-5.483,12.034,12.034,0,0,0,3.91-4.76,18.818,18.818,0,0,0,1.232-7.522V99.015h8.755v26.69a27.186,27.186,0,0,1-1.87,10.88,19.081,19.081,0,0,1-5.908,7.395,68.716,68.716,0,0,1-11.687,6.885ZM-352.155,128q-5.95,0-9.138-4.165a16.984,16.984,0,0,1-3.187-10.625V99.015h6.29V112.7a5.833,5.833,0,0,0,1.742,4.293,5.833,5.833,0,0,0,4.293,1.743h3.825a.751.751,0,0,1,.85.85v7.565a.751.751,0,0,1-.85.85Zm-.68,0a.751.751,0,0,1-.85-.85v-7.565a.751.751,0,0,1,.85-.85h13.685a.751.751,0,0,1,.85.85v7.565a.751.751,0,0,1-.85.85Zm13.685,0a.751.751,0,0,1-.85-.85v-7.565a.751.751,0,0,1,.85-.85h13.685a.751.751,0,0,1,.85.85v7.565a.751.751,0,0,1-.85.85Zm13.685,0a.751.751,0,0,1-.85-.85v-7.565a.751.751,0,0,1,.85-.85h4.165a5.8,5.8,0,0,0,4.25-1.785,5.9,5.9,0,0,0,1.785-4.335V96.465h8.755v16.66a14.74,14.74,0,0,1-1.955,7.48,14.606,14.606,0,0,1-5.355,5.4,14.5,14.5,0,0,1-7.48,2Zm0,7.65h8.67v8.67h-8.67Zm46.155-35.19h6.97v8.245a11.909,11.909,0,0,0,1.573,5.993,11.466,11.466,0,0,0,4.292,4.335,11.679,11.679,0,0,0,5.95,1.572H-231.2a8.713,8.713,0,0,0,6.46-2.677,8.926,8.926,0,0,0,2.635-6.5V100.46h6.97v13.09a6.72,6.72,0,0,0,2.125,4.972A6.928,6.928,0,0,0-208,120.6H-204a.751.751,0,0,1,.85.85v5.695a.751.751,0,0,1-.85.85H-208a11.928,11.928,0,0,1-6.587-1.827,12.033,12.033,0,0,1-4.378-4.973,13.733,13.733,0,0,1-5.058,4.973A14.179,14.179,0,0,1-231.2,128h-29.325a18.279,18.279,0,0,1-9.435-2.55,18.862,18.862,0,0,1-6.842-6.842,18.447,18.447,0,0,1-2.508-9.478Zm22.525-7.48h7.48v7.48h-7.48Zm11.9,0h7.48v7.48h-7.48ZM-204,128a.751.751,0,0,1-.85-.85v-5.695a.751.751,0,0,1,.85-.85h14.875a.751.751,0,0,1,.85.85v5.695a.751.751,0,0,1-.85.85Zm14.875,0a.751.751,0,0,1-.85-.85v-5.695a.751.751,0,0,1,.85-.85h3.995a6.817,6.817,0,0,0,5.058-2.125,7.129,7.129,0,0,0,2.082-5.185V97.825h6.97v15.9a13.979,13.979,0,0,1-1.912,7.182,14.322,14.322,0,0,1-5.143,5.185,13.753,13.753,0,0,1-7.14,1.912Zm0,7.82h7.48v7.565h-7.48ZM-146.71,128a13.753,13.753,0,0,1-7.14-1.912,14.322,14.322,0,0,1-5.143-5.185,13.979,13.979,0,0,1-1.912-7.182V71.985h6.97v41.31a7.129,7.129,0,0,0,2.082,5.185,6.817,6.817,0,0,0,5.058,2.125h3.825a.751.751,0,0,1,.85.85v5.695a.751.751,0,0,1-.85.85Zm2.89-6.545a.751.751,0,0,1,.85-.85h4.93a6.928,6.928,0,0,0,5.015-2.082,6.721,6.721,0,0,0,2.125-4.972V100.46h6.97v13.09a6.746,6.746,0,0,0,2.082,5.015,6.959,6.959,0,0,0,5.058,2.04h4.845a.751.751,0,0,1,.85.85v5.695a.751.751,0,0,1-.85.85h-4.845a12.377,12.377,0,0,1-6.29-1.615,11.819,11.819,0,0,1-4.42-4.42,11.293,11.293,0,0,1-4.292,4.42A12.147,12.147,0,0,1-138.04,128h-4.93a.751.751,0,0,1-.85-.85Zm6.715-36.72h7.565V92.3h-7.565Zm11.985,0h7.48V92.3h-7.48ZM-111.945,128a.751.751,0,0,1-.85-.85v-5.695a.751.751,0,0,1,.85-.85H-97.07a.751.751,0,0,1,.85.85v5.695a.751.751,0,0,1-.85.85Zm14.025-6.545a.751.751,0,0,1,.85-.85h18.53a8.18,8.18,0,0,0,5.95-2.422,8.068,8.068,0,0,0,2.465-5.993q0-4.675-4.5-7.4L-94.86,91.45V85.67l16.32-17.255,4.76,4.505L-87.89,87.71l17.85,11.73a15.5,15.5,0,0,1,5.1,5.482,15.024,15.024,0,0,1,1.87,7.438,15.243,15.243,0,0,1-2.082,7.82,15.783,15.783,0,0,1-5.653,5.695A14.855,14.855,0,0,1-78.54,128H-97.07a.751.751,0,0,1-.85-.85Zm53.805,22.95a100.059,100.059,0,0,0,9.01-5.44,12.864,12.864,0,0,0,4.123-4.8,17.84,17.84,0,0,0,1.4-7.778V100.46h6.97v25.925a24.961,24.961,0,0,1-1.87,10.37,18.2,18.2,0,0,1-5.78,7.012,71.906,71.906,0,0,1-11.22,6.5Zm14.2-59.5h7.48v7.48h-7.48Zm18.19-12.92h6.97V128h-6.97Z" transform="translate(1841 182)" fill="#fff"/>
    <g id="vuesax_outline_arrow-left" data-name="vuesax/outline/arrow-left" transform="translate(200 52)">
      <g id="arrow-left" transform="translate(684 188)">
        <path id="Vector" d="M36.928,73.87a4.018,4.018,0,0,1-2.871-1.192L1.178,39.8a4.087,4.087,0,0,1,0-5.742L34.058,1.178A4.06,4.06,0,0,1,39.8,6.92L9.791,36.928,39.8,66.937a4.087,4.087,0,0,1,0,5.742A3.93,3.93,0,0,1,36.928,73.87Z" transform="translate(14.91 28.072)" fill="#fff"/>
        <path id="Vector-2" data-name="Vector" d="M95.226,8.125H4.063A4.092,4.092,0,0,1,0,4.063,4.092,4.092,0,0,1,4.063,0H95.226a4.092,4.092,0,0,1,4.063,4.063A4.092,4.092,0,0,1,95.226,8.125Z" transform="translate(15.817 60.938)" fill="#fff"/>
        <path id="Vector-3" data-name="Vector" d="M0,0H130V130H0Z" fill="none" opacity="0"/>
      </g>
    </g>
  </g>
</svg>
